<svg xmlns="http://www.w3.org/2000/svg" viewBox="0 0 32 28" role="img">
  <path fill="#0a66b7" d="M11 4h19a2 2 0 0 1 2 2v18a2 2 0 0 1-2 2H11V4Z"/>
  <path fill="#28a8ea" d="m11 7 10.5 8L32 7v17a2 2 0 0 1-2 2H11V7Z"/>
  <path fill="#0078d4" d="M11 6h19a2 2 0 0 1 2 2v1L21.5 17 11 9V6Z"/>
  <path fill="#075da8" d="M2 3.2 19 0v28L2 24.8A2.5 2.5 0 0 1 0 22.35V5.65A2.5 2.5 0 0 1 2 3.2Z"/>
  <path fill="#fff" d="M9.45 8.35c3.45 0 5.55 2.3 5.55 5.65s-2.1 5.65-5.55 5.65S3.9 17.35 3.9 14s2.1-5.65 5.55-5.65Zm0 2.45c-1.55 0-2.45 1.2-2.45 3.2s.9 3.2 2.45 3.2 2.45-1.2 2.45-3.2-.9-3.2-2.45-3.2Z"/>
</svg>
